# xmcd CD database file
#
# Track frame offsets:
#	150
#	14913
#	27953
#	41410
#	53654
#	70361
#	83390
#	95609
#	110605
#	124009
#	138233
#
# Disc length: 1993 seconds
#
# Revision: 1
# Processed by: cddbd v1.5.2PL0 Copyright (c) Steve Scherf et al.
# Submitted via: CDex 1.51
#
DISCID=8e07c70b
DTITLE=The Bawdies - There's No Turning Back
DYEAR=2010
DGENRE=Rock and Roll
TTITLE0=I'm A Love Man
TTITLE1=Hot Dog
TTITLE2=It's Too Late
TTITLE3=Keep You Happy
TTITLE4=Sad Song
TTITLE5=Somebody Help Me
TTITLE6=B.P.B
TTITLE7=Try It Again
TTITLE8=Good Morning
TTITLE9=I Want To Thank You
TTITLE10=Movin' And Groovin'
EXTD=YEAR: 2010
EXTT0=
EXTT1=
EXTT2=
EXTT3=
EXTT4=
EXTT5=
EXTT6=
EXTT7=
EXTT8=
EXTT9=
EXTT10=
PLAYORDER=
